<?xml version="1.0" encoding="utf-8"?>
<!-- Generator: Adobe Illustrator 16.0.0, SVG Export Plug-In . SVG Version: 6.00 Build 0)  -->
<!DOCTYPE svg PUBLIC "-//W3C//DTD SVG 1.1//EN" "http://www.w3.org/Graphics/SVG/1.1/DTD/svg11.dtd">
<svg version="1.1" id="圖層_1" xmlns="http://www.w3.org/2000/svg" xmlns:xlink="http://www.w3.org/1999/xlink" x="0px" y="0px"
	 width="230.925px" height="42.589px" viewBox="0 0 230.925 42.589" enable-background="new 0 0 230.925 42.589"
	 xml:space="preserve">
<g>
	<path fill="#2E3F2E" d="M1.42,27.811l-0.938-0.469c-0.375-0.438-0.532-1-0.469-1.688c1.313-2.063,2.641-4.109,3.984-6.141
		c1.343-2.031,2.656-4.109,3.938-6.234c0.5-0.375,1.094-0.531,1.781-0.469l0.938,0.469c0.375,0.5,0.531,1.094,0.469,1.781
		l-2.906,5.063c1.188,1.063,2.438,1.969,3.75,2.719c0.375,0.438,0.531,1,0.469,1.688l-0.469,0.938
		c-0.5,0.375-1.094,0.532-1.781,0.469c-0.75-0.375-1.469-0.813-2.156-1.313c-0.688-0.5-1.391-0.968-2.109-1.406l-2.625,4.031
		C2.795,27.686,2.17,27.874,1.42,27.811z M18.436,42.576l-0.938-0.469c-0.313-0.375-0.5-0.813-0.563-1.313l-0.094-11.766
		c-1.813,1.594-3.688,3.195-5.625,4.805c-1.938,1.61-4.078,3.57-6.422,5.883c-0.438,0.375-1,0.531-1.688,0.469L2.17,39.717
		c-0.375-0.5-0.532-1.094-0.469-1.781c3.344-3.25,6.047-5.82,8.109-7.711c2.063-1.891,4.406-4.477,7.031-7.758l0.094-10.875
		L5.264,11.498c-1.438,0.125-2.782-0.063-4.031-0.563C0.857,10.498,0.701,9.92,0.764,9.201l0.469-0.938
		C2.357,7.701,3.67,7.514,5.17,7.701l11.766,0.188c0.063-1.25,0.078-2.515,0.047-3.797c-0.031-1.281,0.171-2.484,0.609-3.609
		c0.438-0.375,1-0.531,1.688-0.469l0.938,0.469c0.5,1.313,0.656,2.75,0.469,4.313l-0.094,3.094l15.891-0.094l0.938,0.469
		c0.375,0.5,0.531,1.109,0.469,1.828l-0.469,0.938c-0.438,0.313-0.907,0.5-1.406,0.563H20.592v12.188
		c0.813,0.875,1.797,1.688,2.953,2.438c1.156,0.75,2.93,2.016,5.32,3.797s3.977,2.961,4.758,3.539
		c0.781,0.579,1.578,1.055,2.391,1.43c0.375,0.438,0.531,1,0.469,1.688l-0.469,0.938c-0.5,0.375-1.094,0.532-1.781,0.469
		c-1-0.375-3.195-1.805-6.586-4.289c-3.391-2.484-5.773-4.226-7.148-5.227l0.094,12.609l-0.469,0.938
		C19.685,42.482,19.123,42.639,18.436,42.576z M25.467,26.686l-0.938-0.469c-0.375-0.5-0.532-1.094-0.469-1.781
		c1-1.812,1.906-3.64,2.719-5.484c0.813-1.844,1.563-3.734,2.25-5.672c0.5-0.375,1.109-0.531,1.828-0.469l0.938,0.469
		c0.375,0.5,0.531,1.094,0.469,1.781l-1.406,4.031l4.406,4.125c0.5,0.563,0.719,1.219,0.656,1.969l-0.469,0.938
		c-0.5,0.375-1.094,0.532-1.781,0.469l-0.938-0.469l-3.609-3.469l-1.969,3.563C26.716,26.592,26.154,26.749,25.467,26.686z"/>
	<path fill="#2E3F2E" d="M47.357,32.217c-0.5-0.063-0.938-0.25-1.313-0.563c-0.375-0.438-0.532-1-0.469-1.688l0.469-0.938
		c1.313-0.563,2.734-0.844,4.266-0.844c1.531,0,3.031-0.094,4.5-0.281v-3.094l-6.328,0.094l-0.938-0.469
		c-0.438-0.5-0.625-1.094-0.563-1.781l0.469-0.938c0.938-0.5,1.969-0.687,3.094-0.563h4.359v-2.625l-6.609,0.281l-0.938-0.469
		c-0.438-0.813-0.656-1.703-0.656-2.672c0-0.968-0.063-5.531-0.188-13.688l0.469-0.938c0.625-0.625,1.343-0.953,2.156-0.984
		c0.813-0.031,6.047-0.047,15.703-0.047c0.813-0.063,1.531,0.125,2.156,0.563l0.469,0.938c-0.188,7.657-0.297,12.078-0.328,13.266
		c-0.031,1.188-0.234,2.313-0.609,3.375c-0.5,0.375-1.063,0.563-1.688,0.563l-6.281-0.281v2.719l7.5,0.094l0.938,0.469
		c0.375,0.438,0.531,1,0.469,1.688l-0.469,0.938c-0.438,0.313-0.907,0.5-1.406,0.563l-7.125-0.094v2.906l9.188-0.281l0.938,0.469
		c0.375,0.438,0.531,1,0.469,1.688l-0.469,0.938c-1.25,0.563-2.625,0.813-4.125,0.75c-5.438,0.125-9.164,0.25-11.18,0.375
		C51.271,31.779,49.295,31.967,47.357,32.217z M47.545,42.014c-0.5-0.063-0.938-0.25-1.313-0.563c-0.375-0.438-0.532-1-0.469-1.688
		c0.438-0.938,0.75-1.922,0.938-2.953s0.469-2.016,0.844-2.953c0.5-0.469,1.094-0.672,1.781-0.609l0.938,0.516
		c0.438,0.563,0.593,1.25,0.469,2.063c-0.25,0.938-0.5,1.891-0.75,2.859c-0.25,0.968-0.594,1.891-1.031,2.766
		C48.513,41.763,48.044,41.951,47.545,42.014z M54.904,14.873L54.811,3.764L50.17,3.67l0.188,11.297L54.904,14.873z M52.795,12.623
		l-0.656-0.375c-0.625-1.375-1-2.89-1.125-4.547c0.188-0.438,0.5-0.75,0.938-0.938h0.938c0.438,0.188,0.75,0.5,0.938,0.938
		c0.25,1.344,0.469,2.672,0.656,3.984c-0.188,0.438-0.5,0.75-0.938,0.938H52.795z M54.623,41.732
		c-0.532-0.063-0.984-0.25-1.359-0.563c-0.375-1-0.641-2.032-0.797-3.094c-0.157-1.062-0.328-2.125-0.516-3.188l0.469-0.938
		c0.438-0.375,1-0.531,1.688-0.469l0.984,0.469c0.438,0.938,0.75,1.953,0.938,3.047c0.188,1.094,0.344,2.172,0.469,3.234
		l-0.469,0.938C55.591,41.482,55.123,41.669,54.623,41.732z M60.717,41.545c-0.5-0.063-0.938-0.25-1.313-0.563
		c-0.438-0.938-0.797-1.906-1.078-2.906s-0.485-2.031-0.609-3.094l0.469-0.938c0.438-0.375,1-0.531,1.688-0.469l0.938,0.469
		c0.438,0.938,0.797,1.906,1.078,2.906c0.281,1,0.516,2.031,0.703,3.094l-0.469,0.938C61.685,41.294,61.216,41.482,60.717,41.545z
		 M63.436,14.967L63.811,3.67l-5.344,0.094l0.094,11.016L63.436,14.967z M60.998,12.811c-0.438-0.188-0.75-0.5-0.938-0.938
		l-0.094-0.938c0.25-1.406,0.719-2.734,1.406-3.984c0.312-0.25,0.719-0.344,1.219-0.281c0.438,0.188,0.75,0.5,0.938,0.938v0.938
		c-0.375,1.344-0.813,2.672-1.313,3.984C61.904,12.78,61.498,12.874,60.998,12.811z M66.436,40.42
		c-0.5-0.063-0.938-0.25-1.313-0.563c-0.313-0.938-0.672-1.844-1.078-2.719c-0.406-0.875-0.703-1.812-0.891-2.813l0.469-0.938
		c0.5-0.406,1.094-0.578,1.781-0.516l0.938,0.516c0.5,0.813,0.921,1.688,1.266,2.625c0.344,0.938,0.578,1.906,0.703,2.906
		l-0.469,0.938C67.404,40.169,66.935,40.357,66.436,40.42z M72.248,40.326c-0.5-0.063-0.938-0.25-1.313-0.563
		c-0.375-0.5-0.625-1.063-0.75-1.688l-0.281-14.672c0.188-0.687,0.5-1.313,0.938-1.875c1.375-0.5,2.906-0.656,4.594-0.469
		L75.154,1.889c0.063-0.5,0.25-0.938,0.563-1.313c0.438-0.375,1-0.531,1.688-0.469l0.938,0.469l0.516,0.938v6.281h5.438
		c1.437-0.125,2.719,0.094,3.844,0.656c0.375,0.438,0.531,1.016,0.469,1.734l-0.469,0.938c-1.25,0.5-2.625,0.656-4.125,0.469h-5.156
		l0.281,9.469h7.406l0.938,0.469l0.469,0.938c-0.25,6.313-0.391,10.32-0.422,12.023c-0.031,1.704-0.266,3.336-0.703,4.898
		c-0.813,0.375-1.657,0.625-2.531,0.75L72.248,40.326z M83.732,36.482l0.563-11.766H73.654l0.188,11.953L83.732,36.482z"/>
	<path fill="#2E3F2E" d="M96.295,28.654l-0.938-0.469c-0.375-0.438-0.532-1-0.469-1.688l0.469-0.938
		c2.25-0.938,4.398-2.109,6.445-3.516c2.046-1.406,4.039-3.047,5.977-4.922l-3-2.344c-0.375-0.438-0.532-1-0.469-1.688l0.469-0.938
		c0.5-0.438,1.125-0.593,1.875-0.469l0.938,0.469l3.094,2.531c1.188-1.313,2.313-2.679,3.375-4.102
		c1.062-1.422,1.969-2.883,2.719-4.383L106.373,5.92c-0.625,1.313-1.313,2.618-2.063,3.914c-0.75,1.297-1.61,2.539-2.578,3.727
		c-0.438,0.375-1,0.532-1.688,0.469l-0.938-0.469c-0.375-0.5-0.532-1.094-0.469-1.781c1.062-1.343,1.976-2.766,2.742-4.266
		c0.766-1.5,1.305-2.625,1.617-3.375c0.312-0.75,0.633-1.336,0.961-1.758s0.898-0.617,1.711-0.586
		c0.813,0.031,3.101,0.164,6.867,0.398c3.766,0.234,6.71,0.57,8.836,1.008c0.625,0.406,0.781,1,0.469,1.781
		c-0.563,1.125-1.188,2.219-1.875,3.281c-0.688,1.063-1.422,2.164-2.203,3.305c-0.781,1.141-1.625,2.29-2.531,3.445
		c-0.907,1.156-2.656,2.859-5.25,5.109c-2.594,2.25-4.93,4.094-7.008,5.531C100.896,27.092,98.669,28.092,96.295,28.654z
		 M106.186,42.295c-0.5-0.063-0.938-0.25-1.313-0.563c-0.375-0.438-0.532-1-0.469-1.688l0.469-0.938
		c3-0.125,5.828-0.828,8.484-2.109c2.656-1.281,5.703-3.218,9.141-5.813l-4.5-2.719c-0.375-0.5-0.532-1.094-0.469-1.781l0.469-0.938
		c0.563-0.438,1.25-0.593,2.063-0.469l4.875,3c1.406-1.5,2.578-3.109,3.516-4.828c0.938-1.718,1.718-3.484,2.344-5.297l-9.422-0.844
		l-3.938,6.094c-0.563,0.625-1.25,0.907-2.063,0.844l-0.938-0.469c-0.375-0.438-0.532-1-0.469-1.688
		c0.938-1.375,1.844-2.734,2.719-4.078c0.875-1.343,1.563-2.484,2.063-3.422c0.5-0.938,1.062-1.343,1.688-1.219
		c0.625,0.125,2.585,0.328,5.883,0.609c3.297,0.281,6.101,0.609,8.414,0.984c0.5,0.563,0.687,1.282,0.563,2.156
		c-0.75,1.875-1.531,3.719-2.344,5.531c-0.813,1.813-1.938,3.656-3.375,5.531c-1.438,1.875-2.618,3.352-3.539,4.43
		c-0.922,1.078-2.211,2.258-3.867,3.539c-1.657,1.282-3.922,2.625-6.797,4.031C112.498,41.592,109.436,42.295,106.186,42.295z"/>
	<path fill="#2E3F2E" d="M177.857,41.451c-0.875-0.25-1.664-0.672-2.367-1.266c-0.703-0.594-1.398-1.235-2.086-1.922
		c-0.438-0.5-0.625-1.094-0.563-1.781l0.469-0.938c0.438-0.375,1-0.531,1.688-0.469c0.656,0.313,1.266,0.719,1.828,1.219
		c0.313-2.344,0.547-4.718,0.703-7.125c0.156-2.406,0.297-8.453,0.422-18.141l-14.578-0.094l-0.375,1.406
		c2,1.25,3.969,2.5,5.906,3.75c1.938,1.25,3.875,2.563,5.813,3.938c0.438,0.563,0.625,1.219,0.563,1.969l-0.469,0.938
		c-0.438,0.375-1,0.532-1.688,0.469l-0.938-0.469c-1.688-1.313-3.422-2.531-5.203-3.656s-3.641-2.281-5.578-3.469
		c-1.5,2.375-2.609,4.031-3.328,4.969c-0.719,0.938-1.734,2.063-3.047,3.375c-0.563,0.5-1.219,0.719-1.969,0.656l-0.938-0.469
		c-0.406-0.438-0.579-1-0.516-1.688c1.844-1.812,3.265-3.484,4.266-5.016c1-1.531,2.187-3.766,3.563-6.703l-11.016,0.281
		c0.063,15.031,0.141,23.188,0.234,24.469c0.094,1.282,0.234,2.547,0.422,3.797l-0.469,0.938c-0.438,0.375-1,0.531-1.688,0.469
		l-0.938-0.469c-0.563-1.25-0.875-2.578-0.938-3.984c-0.063-1.406-0.188-10.313-0.375-26.719c-0.063-1.281,0.25-2.023,0.938-2.227
		c0.687-0.203,5.766-0.289,15.234-0.258c0.312-1.125,0.516-2.266,0.609-3.422c0.094-1.156,0.328-2.266,0.703-3.328
		c0.438-0.375,1-0.531,1.688-0.469l0.938,0.469c0.5,0.938,0.656,2,0.469,3.188l-0.75,3.563c7.719,0.063,12.484,0.04,14.297-0.07
		c1.813-0.109,2.766,0.234,2.859,1.031s0.063,4.094-0.094,9.891c-0.156,5.797-0.344,10.282-0.563,13.453
		c-0.219,3.172-0.531,5.672-0.938,7.5S178.92,41.669,177.857,41.451z M155.217,35.451c-0.5-0.063-0.938-0.25-1.313-0.563
		c-0.375-0.438-0.532-1.015-0.469-1.734l0.469-0.938c2-1.062,3.64-2.515,4.922-4.359c1.281-1.844,2.484-3.672,3.609-5.484
		c0.5-0.375,1.094-0.531,1.781-0.469l0.938,0.469c0.375,0.438,0.531,1,0.469,1.688l-1.781,3.188
		c1.063,1.125,2.203,1.985,3.422,2.578c1.219,0.594,2.453,1.203,3.703,1.828c0.375,0.438,0.531,1,0.469,1.688l-0.469,0.984
		c-0.5,0.375-1.094,0.532-1.781,0.469c-1.375-0.5-2.688-1.132-3.938-1.898c-1.25-0.766-2.469-1.617-3.656-2.555
		c-1.063,1.25-2.016,2.258-2.859,3.023c-0.844,0.766-1.734,1.399-2.672,1.898L155.217,35.451z"/>
	<path fill="#2E3F2E" d="M192.951,28.045c-1.5,0.094-2.297-0.234-2.391-0.984s-0.234-6.766-0.422-18.047
		c0.031-1.343,0.289-2.117,0.773-2.32c0.484-0.203,4.727-0.086,12.727,0.352c1.188-0.031,1.805,0.391,1.852,1.266
		c0.047,0.875,0.063,4,0.047,9.375c-0.016,5.375-0.055,8.438-0.117,9.188s-0.797,1.063-2.203,0.938L192.951,28.045z M201.623,24.154
		V10.842l-7.641-0.188v13.5H201.623z M218.592,41.357c-1.563,0-3.047-0.157-4.453-0.469c-1.406-0.313-2.75-1.125-4.031-2.438
		s-2.063-2.992-2.344-5.039c-0.281-2.046-0.383-7.219-0.305-15.516s0.102-12.906,0.07-13.828c-0.031-0.921,0.563-1.367,1.781-1.336
		h18.328c1.344-0.218,2.125,0.281,2.344,1.5l0.281,15.328c0.094,1.125-0.133,1.704-0.68,1.734
		c-0.547,0.031-6.711,0.141-18.492,0.328c0.063,5.188,0.125,8.618,0.188,10.289c0.063,1.672,0.656,3.008,1.781,4.008
		c1.125,1,2.281,1.547,3.469,1.641s2.359,0.094,3.516,0s2.32-0.156,3.492-0.188c1.172-0.031,2.352-0.078,3.539-0.141
		c-0.25-1.062-0.344-2.031-0.281-2.906l0.469-0.938c0.438-0.406,1-0.578,1.688-0.516l0.938,0.516
		c0.375,0.875,0.625,1.781,0.75,2.719s0.219,1.891,0.281,2.859s-0.453,1.563-1.547,1.781c-1.094,0.218-2.664,0.328-4.711,0.328
		S220.592,41.17,218.592,41.357z M217.092,17.873l-0.188-11.484h-5.531l-0.188,11.484H217.092z M226.514,17.779l-0.188-11.484
		h-5.766l0.188,11.578L226.514,17.779z"/>
</g>
</svg>
